<svg width="22" height="22" viewBox="0 0 22 22" fill="none" xmlns="http://www.w3.org/2000/svg">
<path d="M18.4167 3.15256C17.4233 2.14951 16.2403 1.35419 14.9365 0.812951C13.6327 0.271714 12.2342 -0.00461843 10.8225 5.83864e-05C4.9075 5.83864e-05 0.0866668 4.82089 0.0866668 10.7359C0.0866668 12.6317 0.585 14.4734 1.51667 16.0984L0 21.6667L5.6875 20.1717C7.25833 21.0276 9.02417 21.4826 10.8225 21.4826C16.7375 21.4826 21.5583 16.6617 21.5583 10.7467C21.5583 7.87589 20.4425 5.17839 18.4167 3.15256ZM10.8225 19.6626C9.21917 19.6626 7.64833 19.2292 6.2725 18.4167L5.9475 18.2217L2.5675 19.1101L3.46667 15.8167L3.25 15.4809C2.35901 14.0585 1.886 12.4143 1.885 10.7359C1.885 5.81756 5.89333 1.80923 10.8117 1.80923C13.195 1.80923 15.4375 2.74089 17.1167 4.43089C17.9482 5.25841 18.6072 6.24281 19.0554 7.327C19.5036 8.41118 19.732 9.57357 19.7275 10.7467C19.7492 15.6651 15.7408 19.6626 10.8225 19.6626ZM15.7192 12.9892C15.4483 12.8592 14.1267 12.2092 13.8883 12.1117C13.6392 12.0251 13.4658 11.9817 13.2817 12.2417C13.0975 12.5126 12.5883 13.1192 12.4367 13.2926C12.285 13.4767 12.1225 13.4984 11.8517 13.3576C11.5808 13.2276 10.7142 12.9351 9.69583 12.0251C8.89417 11.3101 8.36333 10.4326 8.20083 10.1617C8.04917 9.89089 8.17917 9.75006 8.32 9.60923C8.43917 9.49006 8.59083 9.29506 8.72083 9.14339C8.85083 8.99173 8.905 8.87256 8.99167 8.69923C9.07833 8.51506 9.035 8.36339 8.97 8.23339C8.905 8.10339 8.36333 6.78173 8.14667 6.24006C7.93 5.72006 7.7025 5.78506 7.54 5.77423H7.02C6.83583 5.77423 6.55417 5.83923 6.305 6.11006C6.06667 6.38089 5.37333 7.03089 5.37333 8.35256C5.37333 9.67423 6.3375 10.9526 6.4675 11.1259C6.5975 11.3101 8.36333 14.0184 11.05 15.1776C11.6892 15.4592 12.1875 15.6217 12.5775 15.7409C13.2167 15.9467 13.8017 15.9142 14.2675 15.8492C14.7875 15.7734 15.86 15.1992 16.0767 14.5709C16.3042 13.9426 16.3042 13.4117 16.2283 13.2926C16.1525 13.1734 15.99 13.1192 15.7192 12.9892Z" fill="black"/>
</svg>
